:FULLY-SPECIFIED
:FORCE-ALL-JOINTS-BE-3DOF
:DEGREES
29
root 0.399751 17.2339 -21.1851 4.2661 -5.80027 -2.90429
lfemur -20.5843 9.22057 -14.2619
ltibia 90.7021 -0 0
lfoot 4.91503 -2.97609 -0.336265
ltoes -9.66076 0 0
rfemur -21.6878 1.83551 27.1232
rtibia 62.5511 -0 0
rfoot -7.15459 -6.04669 0.0629981
rtoes -3.32438 0 0
lowerback 18.7022 -0.940603 1.19026
upperback 2.06638 -0.940637 0.833413
thorax -8.18426 -0.473653 0.465993
lowerneck -1.83417 1.98959 0.203775
upperneck -15.4798 2.49813 -1.44044
head -4.37571 1.28467 -0.540263
lclavicle -1.46107e-14 1.03368e-14 0
lhumerus -36.5463 -14.9072 93.0026
lradius 107.081 -0 0
lwrist 32.0268 0 0
lhand -38.8325 12.2887 -0.025974
lfingers 7.12502 -0 0
lthumb -11.842 41.9308 -0.0244871
rclavicle -1.46107e-14 1.03368e-14 0
rhumerus -38.236 11.3843 -88.4659
rradius 94.9859 -0 0
rwrist -2.18542 0 0
rhand -45.9641 38.795 -0.0175664
rfingers 7.12502 -0 0
rthumb -18.7102 9.68609 -0.0200977
30
root 0.41075 17.2383 -20.6479 4.26426 -6.0926 -3.08367
lfemur -21.0248 9.66764 -13.8208
ltibia 92.4704 -0 0
lfoot 5.74996 -3.10309 -0.32139
ltoes -9.60513 0 0
rfemur -21.1519 1.99398 27.5197
rtibia 60.9195 -0 0
rfoot -7.86971 -6.07445 0.0602164
rtoes -3.74762 0 0
lowerback 18.683 -0.929382 1.41378
upperback 2.08109 -0.871398 0.941089
thorax -8.16223 -0.446494 0.437237
lowerneck -1.7905 2.06471 0.259143
upperneck -15.5751 2.57435 -1.64047
head -4.40156 1.32913 -0.616394
lclavicle -1.46107e-14 1.03368e-14 0
lhumerus -37.456 -14.6249 93.3027
lradius 106.839 -0 0
lwrist 32.1884 0 0
lhand -38.8911 12.4282 -0.0248321
lfingers 7.12502 -0 0
lthumb -11.8986 42.0672 -0.0234105
rclavicle -1.46107e-14 1.03368e-14 0
rhumerus -37.6479 11.4909 -88.4556
rradius 95.4826 -0 0
rwrist -2.23516 0 0
rhand -45.8601 38.7417 -0.0167942
rfingers 7.12502 -0 0
rthumb -18.6103 9.62277 -0.0192142
31
root 0.421749 17.2426 -20.1106 4.26334 -6.38494 -3.26314
lfemur -21.4625 10.118 -13.3826
ltibia 94.2387 -0 0
lfoot 6.58486 -3.22986 -0.304667
ltoes -9.5495 0 0
rfemur -20.6149 2.14874 27.9178
rtibia 59.2879 -0 0
rfoot -8.58483 -6.10218 0.0570883
rtoes -4.17086 0 0
lowerback 18.6638 -0.918086 1.63728
upperback 2.09594 -0.802187 1.04878
thorax -8.1402 -0.419324 0.408491
lowerneck -1.74674 2.13978 0.314571
upperneck -15.6707 2.65024 -1.84064
head -4.42747 1.37356 -0.692546
lclavicle -1.46107e-14 1.03368e-14 0
lhumerus -38.3631 -14.338 93.5978
lradius 106.596 -0 0
lwrist 32.3501 0 0
lhand -38.9498 12.5677 -0.0235474
lfingers 7.12502 -0 0
lthumb -11.9551 42.2036 -0.0221994
rclavicle -1.46107e-14 1.03368e-14 0
rhumerus -37.0595 11.5974 -88.4441
rradius 95.9793 -0 0
rwrist -2.2849 0 0
rhand -45.7562 38.6885 -0.0159254
rfingers 7.12502 -0 0
rthumb -18.5103 9.55946 -0.0182202
32
root 0.432748 17.247 -19.5734 4.26334 -6.67728 -3.44271
lfemur -21.8972 10.5717 -12.9473
ltibia 96.007 -0 0
lfoot 7.41971 -3.35638 -0.286098
ltoes -9.49387 0 0
rfemur -20.0767 2.29975 28.3173
rtibia 57.6562 -0 0
rfoot -9.29995 -6.12987 0.0536144
rtoes -4.5941 0 0
lowerback 18.6447 -0.906715 1.86079
upperback 2.11091 -0.733004 1.15649
thorax -8.11819 -0.392144 0.379756
lowerneck -1.70292 2.21481 0.370059
upperneck -15.7666 2.7258 -2.04095
head -4.45344 1.41795 -0.76872
lclavicle -1.46107e-14 1.03368e-14 0
lhumerus -39.2674 -14.0467 93.8877
lradius 106.354 -0 0
lwrist 32.5117 0 0
lhand -39.0084 12.7073 -0.0221201
lfingers 7.12502 -0 0
lthumb -12.0116 42.34 -0.0208538
rclavicle -1.46107e-14 1.03368e-14 0
rhumerus -36.4709 11.7039 -88.4315
rradius 96.476 -0 0
rwrist -2.33465 0 0
rhand -45.6523 38.6353 -0.0149601
rfingers 7.12502 -0 0
rthumb -18.4104 9.49615 -0.0171158
33
root 0.443747 17.2514 -19.0361 4.26426 -6.96962 -3.62239
lfemur -22.3291 11.0286 -12.5148
ltibia 97.7753 -0 0
lfoot 8.25452 -3.48261 -0.265688
ltoes -9.43824 0 0
rfemur -19.5375 2.44701 28.7182
rtibia 56.0246 -0 0
rfoot -10.0151 -6.15751 0.0497952
rtoes -5.01734 0 0
lowerback 18.6256 -0.895269 2.08429
upperback 2.12601 -0.66385 1.26421
thorax -8.0962 -0.364952 0.351031
lowerneck -1.65901 2.28979 0.425607
upperneck -15.8627 2.80102 -2.2414
head -4.47947 1.46231 -0.844916
lclavicle -1.46107e-14 1.03368e-14 0
lhumerus -40.169 -13.7509 94.1725
lradius 106.112 -0 0
lwrist 32.6733 0 0
lhand -39.067 12.8468 -0.02055
lfingers 7.12502 -0 0
lthumb -12.0681 42.4763 -0.0193736
rclavicle -1.46107e-14 1.03368e-14 0
rhumerus -35.882 11.8101 -88.4178
rradius 96.9727 -0 0
rwrist -2.38439 0 0
rhand -45.5483 38.5821 -0.0138983
rfingers 7.12502 -0 0
rthumb -18.3105 9.43284 -0.015901
